<svg width="56" height="56" viewBox="0 0 56 56" fill="none" xmlns="http://www.w3.org/2000/svg">
<path d="M28.001 0C12.5377 0 0.00195312 12.5367 0.00195312 27.9994C0.00195312 43.4622 12.5377 56 28.001 56C43.4643 56 56.0016 43.4629 56.0016 27.9994C56.0016 12.536 43.4643 0 28.001 0ZM41.4416 24.9383L23.042 43.3365C23.0357 43.3429 23.0305 43.3481 23.0241 43.3545L22.9114 43.4672L22.9056 43.4609C21.8675 44.4276 20.5226 44.9099 19.1302 44.9099C17.4697 44.9099 15.7471 44.2327 14.4143 42.8997C13.2292 41.7155 12.5185 40.1856 12.4134 38.5918C12.3093 37.0154 12.8084 35.5611 13.8106 34.4602L13.8005 34.4501L31.9837 16.2669C33.5194 14.7308 36.1294 14.8439 37.8034 16.5176C38.5882 17.3023 39.0603 18.32 39.1305 19.3822C39.2049 20.5014 38.8118 21.5783 38.0523 22.3369L23.2504 37.1403L21.1961 35.0866L35.9989 20.2826C36.2158 20.0657 36.2453 19.7781 36.2319 19.5757C36.2082 19.2214 36.032 18.8554 35.7488 18.572C35.2168 18.04 34.433 17.9258 34.0374 18.3217L16.0325 36.3263C15.513 36.8452 15.2575 37.5822 15.3118 38.4003C15.3708 39.2907 15.7814 40.1593 16.4684 40.8462C17.8322 42.2096 19.8545 42.4075 20.982 41.2897L39.3888 22.8844C40.2462 22.0265 40.6703 20.8206 40.5822 19.4897C40.4892 18.0861 39.8463 16.7223 38.773 15.649C36.6078 13.4844 33.3628 13.208 31.5376 15.0323L16.3095 30.2598L14.2553 28.2061L29.4833 12.978C32.4405 10.0214 37.5292 10.2973 40.8267 13.5944C42.3986 15.1654 43.3407 17.1905 43.4807 19.297C43.6246 21.4758 42.9007 23.4791 41.4416 24.9383Z" fill="#ffffff"/>
</svg>
